<svg width="40" height="40" viewBox="0 0 40 40" fill="none" xmlns="http://www.w3.org/2000/svg">
<g clip-path="url(#clip0_126_4400)">
<rect width="40" height="40" rx="14" fill="url(#paint0_linear_126_4400)"/>
<path d="M20.0571 12.3698C14.5512 12.3698 13.9851 13.1463 13.9851 20.0308C13.9851 26.9154 14.6026 27.6919 20.0571 27.6919C25.5116 27.6919 26.129 26.9154 26.129 20.0308C26.129 13.1463 25.5116 12.3698 20.0571 12.3698ZM6.67822 20.0308C6.67822 9.3675 9.354 6.72754 20.0056 6.72754C30.6573 6.72754 33.3331 9.3675 33.3331 20.0308C33.3331 30.6942 30.7087 33.3342 20.0571 33.3342C9.354 33.3342 6.67822 30.6942 6.67822 20.0308Z" fill="white"/>
<path d="M30.7625 30.6901C30.5565 30.8957 30.2476 31.1528 29.8872 31.4098C29.6812 31.564 28.9604 32.0781 27.8277 32.4894C26.592 32.9521 25.5108 33.0549 23.7602 33.2091C23.3998 33.2605 23.0909 33.2605 22.8335 33.2605C22.0097 33.3119 20.5165 33.3633 18.6115 33.3119C17.4788 33.2605 16.4491 33.2605 15.1104 33.0549C13.1539 32.7978 12.3301 32.4894 12.0212 32.3866C11.4548 32.1809 10.5795 31.8211 9.70424 31.05C9.0864 30.5359 8.6745 29.9704 8.46855 29.6105C8.2626 29.3021 8.05666 28.9422 7.85071 28.4795C7.28435 27.1943 7.0784 25.9091 6.92394 24.9838C6.87245 24.5725 6.6665 22.9275 6.6665 20.1514C6.6665 18.9176 6.6665 18.3007 6.71799 17.3754C6.92394 14.5479 7.18138 11.5663 9.29235 9.50993C10.0132 8.84162 10.6825 8.48176 11.3003 8.17331C11.9182 7.86486 13.2054 7.29937 16.7065 6.99092C18.663 6.8367 20.1046 6.88811 21.7007 6.88811C23.6058 6.93952 26.3861 7.09374 28.0851 7.81346C28.9604 8.22472 29.7327 8.7388 29.7327 8.7388C30.1446 9.04725 30.2918 9.18284 30.5492 9.43988C30.2403 9.95396 29.8216 10.6916 28.8433 11.3599C27.4532 12.2852 26.1286 12.5944 25.5108 12.6458C25.0474 12.6972 24.9959 12.6458 22.4216 12.543C20.8255 12.4402 20.1561 12.4402 19.8987 12.4402C18.4056 12.3888 17.1699 12.4402 16.0372 12.9029C15.7797 13.0057 15.5223 13.1599 15.2649 13.4169C14.75 13.8796 14.544 14.4965 14.4411 14.8564C14.1836 15.7817 14.0292 16.7585 14.0292 20.0486C14.0292 20.2028 14.0292 20.6655 14.0292 21.3338C14.0292 22.2592 14.0806 22.7732 14.0806 23.0303C14.1321 23.6472 14.1321 23.9042 14.1836 24.1098C14.2351 24.6239 14.3381 24.9324 14.3896 25.0352C14.4411 25.2922 14.4925 25.4979 14.647 25.7549C14.75 26.012 14.9559 26.3718 15.2649 26.6803C15.4708 26.8345 15.6253 26.9373 15.7797 27.0401C16.0372 27.1943 16.2431 27.2457 16.5005 27.3486C16.9124 27.4514 17.2729 27.5028 18.0452 27.5542C18.663 27.6056 19.1779 27.657 19.8987 27.657C20.5165 27.657 20.9799 27.657 21.2374 27.6056C22.8335 27.5542 23.9147 27.5028 25.0474 27.657C26.6435 27.8626 27.7762 28.4281 28.1366 28.6338C29.3723 29.3535 30.2476 30.1246 30.7625 30.6901Z" fill="#0A5AD1"/>
<path d="M30.7625 30.6901C30.5565 30.8957 30.2476 31.1528 29.8872 31.4098C29.6812 31.564 28.9604 32.0781 27.8277 32.4894C26.592 32.9521 25.5108 33.0549 23.7602 33.2091C23.3998 33.2605 23.0909 33.2605 22.8335 33.2605C22.0097 33.3119 20.5165 33.3633 18.6115 33.3119C17.4788 33.2605 16.4491 33.2605 15.1104 33.0549C13.1539 32.7978 12.3301 32.4894 12.0212 32.3866C11.4548 32.1809 10.5795 31.8211 9.70424 31.05C9.0864 30.5359 8.6745 29.9704 8.46855 29.6105C8.2626 29.3021 8.05666 28.9422 7.85071 28.4795C7.28435 27.1943 7.0784 25.9091 6.92394 24.9838C6.87245 24.5725 6.6665 22.9275 6.6665 20.1514C6.6665 18.9176 6.6665 18.3007 6.71799 17.3754C6.92394 14.5479 7.18138 11.5663 9.29235 9.50993C10.0132 8.84162 10.6825 8.48176 11.3003 8.17331C11.9182 7.86486 13.2054 7.29937 16.7065 6.99092C18.663 6.8367 20.1046 6.88811 21.7007 6.88811C23.6058 6.93952 26.3861 7.09374 28.0851 7.81346C28.9604 8.22472 29.7327 8.7388 29.7327 8.7388C30.1446 9.04725 30.2918 9.18284 30.5492 9.43988C30.2403 9.95396 29.8216 10.6916 28.8433 11.3599C27.4532 12.2852 26.1286 12.5944 25.5108 12.6458C25.0474 12.6972 24.9959 12.6458 22.4216 12.543C20.8255 12.4402 20.1561 12.4402 19.8987 12.4402C18.4056 12.3888 17.1699 12.4402 16.0372 12.9029C15.7797 13.0057 15.5223 13.1599 15.2649 13.4169C14.75 13.8796 14.544 14.4965 14.4411 14.8564C14.1836 15.7817 14.0292 16.7585 14.0292 20.0486C14.0292 20.2028 14.0292 20.6655 14.0292 21.3338C14.0292 22.2592 14.0806 22.7732 14.0806 23.0303C14.1321 23.6472 14.1321 23.9042 14.1836 24.1098C14.2351 24.6239 14.3381 24.9324 14.3896 25.0352C14.4411 25.2922 14.4925 25.4979 14.647 25.7549C14.75 26.012 14.9559 26.3718 15.2649 26.6803C15.4708 26.8345 15.6253 26.9373 15.7797 27.0401C16.0372 27.1943 16.2431 27.2457 16.5005 27.3486C16.9124 27.4514 17.2729 27.5028 18.0452 27.5542C18.663 27.6056 19.1779 27.657 19.8987 27.657C20.5165 27.657 20.9799 27.657 21.2374 27.6056C22.8335 27.5542 23.9147 27.5028 25.0474 27.657C26.6435 27.8626 27.7762 28.4281 28.1366 28.6338C29.3723 29.3535 30.2476 30.1246 30.7625 30.6901Z" fill="url(#paint1_linear_126_4400)"/>
<path d="M30.7625 30.6901C30.5565 30.8957 30.2476 31.1528 29.8872 31.4098C29.6812 31.564 28.9604 32.0781 27.8277 32.4894C26.592 32.9521 25.5108 33.0549 23.7602 33.2091C23.3998 33.2605 23.0909 33.2605 22.8335 33.2605C22.0097 33.3119 20.5165 33.3633 18.6115 33.3119C17.4788 33.2605 16.4491 33.2605 15.1104 33.0549C13.1539 32.7978 12.3301 32.4894 12.0212 32.3866C11.4548 32.1809 10.5795 31.8211 9.70424 31.05C9.0864 30.5359 8.6745 29.9704 8.46855 29.6105C8.2626 29.3021 8.05666 28.9422 7.85071 28.4795C7.28435 27.1943 7.0784 25.9091 6.92394 24.9838C6.87245 24.5725 6.6665 22.9275 6.6665 20.1514C6.6665 18.9176 6.6665 18.3007 6.71799 17.3754C6.92394 14.5479 7.18138 11.5663 9.29235 9.50993C10.0132 8.84162 10.6825 8.48176 11.3003 8.17331C11.9182 7.86486 13.2054 7.29937 16.7065 6.99092C18.663 6.8367 20.1046 6.88811 21.7007 6.88811C23.6058 6.93952 26.3861 7.09374 28.0851 7.81346C28.9604 8.22472 29.7327 8.7388 29.7327 8.7388C30.1446 9.04725 30.2918 9.18284 30.5492 9.43988C30.2403 9.95396 29.8216 10.6916 28.8433 11.3599C27.4532 12.2852 26.1286 12.5944 25.5108 12.6458C25.0474 12.6972 24.9959 12.6458 22.4216 12.543C20.8255 12.4402 20.1561 12.4402 19.8987 12.4402C18.4056 12.3888 17.1699 12.4402 16.0372 12.9029C15.7797 13.0057 15.5223 13.1599 15.2649 13.4169C14.75 13.8796 14.544 14.4965 14.4411 14.8564C14.1836 15.7817 14.0292 16.7585 14.0292 20.0486C14.0292 20.2028 14.0292 20.6655 14.0292 21.3338C14.0292 22.2592 14.0806 22.7732 14.0806 23.0303C14.1321 23.6472 14.1321 23.9042 14.1836 24.1098C14.2351 24.6239 14.3381 24.9324 14.3896 25.0352C14.4411 25.2922 14.4925 25.4979 14.647 25.7549C14.75 26.012 14.9559 26.3718 15.2649 26.6803C15.4708 26.8345 15.6253 26.9373 15.7797 27.0401C16.0372 27.1943 16.2431 27.2457 16.5005 27.3486C16.9124 27.4514 17.2729 27.5028 18.0452 27.5542C18.663 27.6056 19.1779 27.657 19.8987 27.657C20.5165 27.657 20.9799 27.657 21.2374 27.6056C22.8335 27.5542 23.9147 27.5028 25.0474 27.657C26.6435 27.8626 27.7762 28.4281 28.1366 28.6338C29.3723 29.3535 30.2476 30.1246 30.7625 30.6901Z" fill="url(#paint2_linear_126_4400)" fill-opacity="0.8"/>
<path d="M7.02769 25.4403C6.97609 24.9736 6.87289 24.3513 6.8213 23.6252C6.7697 23.2103 6.6665 22.1213 6.6665 19.995C6.6665 19.0097 6.6665 18.1799 6.7181 17.3502C6.87289 14.6534 7.07928 11.4381 9.29797 9.31185C10.0719 8.53395 10.8459 8.17093 11.3619 7.91163C12.8582 7.13373 14.1997 7.03001 16.0572 6.82257C17.4504 6.66699 18.6371 6.66699 19.3595 6.66699C20.185 6.66699 20.9074 6.66699 21.7329 6.71885C22.8681 6.77071 23.4356 6.77071 23.642 6.82257C24.6224 6.87443 25.2416 6.97815 25.6027 7.03001C26.4799 7.13373 26.8889 7.28835 27.0991 7.34117C27.5118 7.44489 27.8214 7.60047 28.0794 7.70419C28.5954 7.91163 29.163 8.17093 29.7821 8.63767C30.0401 8.84511 30.4013 9.10441 30.7625 9.46743C30.4013 9.98603 29.7821 10.7639 28.8018 11.4381C28.2342 11.853 27.7182 12.0604 27.5634 12.1642C27.2023 12.3197 26.0671 12.7865 24.5708 12.7346C24.158 12.7346 24.3128 12.6828 22.9713 12.579C22.5069 12.5272 21.9909 12.4753 21.4234 12.4753C21.1654 12.4753 20.2882 12.4235 19.4111 12.4235C18.0695 12.4753 16.8828 12.6309 16.3152 12.7346C13.4774 13.3569 11.4651 15.0683 10.7427 15.7425C6.87289 19.269 7.02769 24.6106 7.02769 25.4403Z" fill="#364EC5"/>
<path d="M7.02769 25.4403C6.97609 24.9736 6.87289 24.3513 6.8213 23.6252C6.7697 23.2103 6.6665 22.1213 6.6665 19.995C6.6665 19.0097 6.6665 18.1799 6.7181 17.3502C6.87289 14.6534 7.07928 11.4381 9.29797 9.31185C10.0719 8.53395 10.8459 8.17093 11.3619 7.91163C12.8582 7.13373 14.1997 7.03001 16.0572 6.82257C17.4504 6.66699 18.6371 6.66699 19.3595 6.66699C20.185 6.66699 20.9074 6.66699 21.7329 6.71885C22.8681 6.77071 23.4356 6.77071 23.642 6.82257C24.6224 6.87443 25.2416 6.97815 25.6027 7.03001C26.4799 7.13373 26.8889 7.28835 27.0991 7.34117C27.5118 7.44489 27.8214 7.60047 28.0794 7.70419C28.5954 7.91163 29.163 8.17093 29.7821 8.63767C30.0401 8.84511 30.4013 9.10441 30.7625 9.46743C30.4013 9.98603 29.7821 10.7639 28.8018 11.4381C28.2342 11.853 27.7182 12.0604 27.5634 12.1642C27.2023 12.3197 26.0671 12.7865 24.5708 12.7346C24.158 12.7346 24.3128 12.6828 22.9713 12.579C22.5069 12.5272 21.9909 12.4753 21.4234 12.4753C21.1654 12.4753 20.2882 12.4235 19.4111 12.4235C18.0695 12.4753 16.8828 12.6309 16.3152 12.7346C13.4774 13.3569 11.4651 15.0683 10.7427 15.7425C6.87289 19.269 7.02769 24.6106 7.02769 25.4403Z" fill="url(#paint3_linear_126_4400)"/>
<g filter="url(#filter0_f_126_4400)">
<path d="M34.4214 10.8305C34.4214 10.8305 23.0745 8.06664 16.952 11.5652C10.8296 15.0637 10.6633 16.5356 9.86488 19.3072" stroke="white" stroke-width="0.163265"/>
</g>
<g filter="url(#filter1_f_126_4400)">
<path d="M26.1777 42.0121C26.1777 42.0121 17.5543 43.3658 14.2008 38.5311C10.8472 33.6965 12.6038 25.7676 12.2844 21.7065" stroke="#041639" stroke-width="0.163265"/>
</g>
</g>
<defs>
<filter id="filter0_f_126_4400" x="6.52132" y="6.44661" width="31.1844" height="16.1488" filterUnits="userSpaceOnUse" color-interpolation-filters="sRGB">
<feFlood flood-opacity="0" result="BackgroundImageFix"/>
<feBlend mode="normal" in="SourceGraphic" in2="BackgroundImageFix" result="shape"/>
<feGaussianBlur stdDeviation="1.63265" result="effect1_foregroundBlur_126_4400"/>
</filter>
<filter id="filter1_f_126_4400" x="8.75716" y="18.4349" width="20.6986" height="27.099" filterUnits="userSpaceOnUse" color-interpolation-filters="sRGB">
<feFlood flood-opacity="0" result="BackgroundImageFix"/>
<feBlend mode="normal" in="SourceGraphic" in2="BackgroundImageFix" result="shape"/>
<feGaussianBlur stdDeviation="1.63265" result="effect1_foregroundBlur_126_4400"/>
</filter>
<linearGradient id="paint0_linear_126_4400" x1="37.6667" y1="1.66667" x2="2.66667" y2="40" gradientUnits="userSpaceOnUse">
<stop stop-color="#17191E"/>
<stop offset="1" stop-color="#151E3B"/>
</linearGradient>
<linearGradient id="paint1_linear_126_4400" x1="13.7413" y1="25.6053" x2="9.49513" y2="22.1784" gradientUnits="userSpaceOnUse">
<stop offset="0.0119946" stop-color="#446EDD"/>
<stop offset="1" stop-color="#364EC5"/>
</linearGradient>
<linearGradient id="paint2_linear_126_4400" x1="26.5304" y1="41.0611" x2="11.1445" y2="16.789" gradientUnits="userSpaceOnUse">
<stop stop-color="#1A4CCD" stop-opacity="0"/>
<stop offset="0.856561" stop-color="#00071E"/>
</linearGradient>
<linearGradient id="paint3_linear_126_4400" x1="28.9499" y1="3.57366" x2="6.66276" y2="14.3392" gradientUnits="userSpaceOnUse">
<stop stop-color="#B1E1EC" stop-opacity="0"/>
<stop offset="1" stop-color="#446EDD"/>
</linearGradient>
<clipPath id="clip0_126_4400">
<rect width="40" height="40" rx="14" fill="white"/>
</clipPath>
</defs>
</svg>
