<svg width="40" height="40" viewBox="0 0 40 40" fill="none" xmlns="http://www.w3.org/2000/svg">
<rect width="40" height="40" rx="14" fill="url(#paint0_linear_125_4023)"/>
<rect width="40" height="40" rx="14" fill="url(#paint1_radial_125_4023)" fill-opacity="0.19"/>
<path d="M22.3003 17.8938L20.8255 14.884L18.9407 18.7309L14.862 19.2474L17.8407 21.9846L17.0572 26.0616L20.8255 24.0703L24.5939 26.0616L23.8103 21.9846L25.778 20.1764L30.2575 16.101L33.687 16.5353C34.142 16.5929 34.3217 17.1565 33.9839 17.4669L27.6781 23.2615L29.2743 31.5673C29.3597 32.0114 28.893 32.3568 28.4932 32.1455L20.8255 28.0937L13.1578 32.1455C12.758 32.3568 12.2914 32.0114 12.3767 31.5673L13.973 23.2615L7.66711 17.4669C7.32935 17.1565 7.509 16.5929 7.96408 16.5353L16.5904 15.4428L20.3415 7.78718C20.5387 7.38474 21.1123 7.38474 21.3095 7.78718L25.0402 15.4011L22.3003 17.8938Z" fill="#E3791E"/>
<defs>
<linearGradient id="paint0_linear_125_4023" x1="0" y1="0" x2="43.8262" y2="4.75828" gradientUnits="userSpaceOnUse">
<stop stop-color="#0B1932"/>
<stop offset="0.449" stop-color="#100D2B"/>
<stop offset="1" stop-color="#11051F"/>
</linearGradient>
<radialGradient id="paint1_radial_125_4023" cx="0" cy="0" r="1" gradientUnits="userSpaceOnUse" gradientTransform="translate(20 20) rotate(90) scale(23.3333 17.3176)">
<stop stop-color="#8621BD"/>
<stop offset="1" stop-color="#501266" stop-opacity="0"/>
</radialGradient>
</defs>
</svg>
