<svg width="40" height="40" viewBox="0 0 40 40" fill="none" xmlns="http://www.w3.org/2000/svg">
<rect width="40" height="40" rx="14" fill="url(#paint0_linear_128_4408)"/>
<path d="M34.9658 24.5828C35.3646 23.9286 35.5953 23.1789 35.658 22.3337H33.3082C33.2569 22.8663 33.1344 23.3121 32.9407 23.671C32.7528 24.0299 32.4765 24.302 32.1119 24.4873C31.753 24.6726 31.2859 24.7652 30.7106 24.7652C30.2378 24.7652 29.8305 24.6726 29.4887 24.4873C29.1469 24.302 28.8678 24.0328 28.6513 23.6797C28.4348 23.3265 28.2753 22.8952 28.1728 22.3858C28.0702 21.8763 28.019 21.3003 28.019 20.6576V19.6763C28.019 19.0048 28.0759 18.4143 28.1899 17.9048C28.3038 17.3895 28.4747 16.9611 28.7026 16.6196C28.9304 16.2722 29.2152 16.0117 29.557 15.838C29.9045 15.6643 30.3061 15.5775 30.7618 15.5775C31.3486 15.5775 31.8185 15.6759 32.1717 15.8727C32.5306 16.0638 32.7983 16.3446 32.9749 16.7151C33.1572 17.0856 33.2711 17.5372 33.3167 18.0698H35.6665C35.5868 17.213 35.3532 16.4546 34.9658 15.7946C34.5785 15.1346 34.0345 14.6164 33.3338 14.2401C32.6331 13.858 31.7758 13.667 30.7618 13.667C29.9814 13.667 29.275 13.8088 28.6427 14.0925C28.0161 14.3762 27.4778 14.7814 27.0278 15.3083C26.5835 15.8293 26.2417 16.4604 26.0024 17.2014C25.7632 17.9424 25.6435 18.7732 25.6435 19.6937V20.6576C25.6435 21.5781 25.7603 22.4089 25.9939 23.15C26.2274 23.8852 26.5635 24.5162 27.0022 25.0431C27.4465 25.5641 27.9791 25.9665 28.6 26.2502C29.2266 26.528 29.9301 26.667 30.7106 26.667C31.7245 26.667 32.5876 26.4817 33.2996 26.1112C34.0117 25.7407 34.5671 25.2312 34.9658 24.5828Z" fill="url(#paint1_linear_128_4408)"/>
<path d="M10.7501 23.2107C10.7501 22.9676 10.7131 22.7505 10.639 22.5594C10.5706 22.3626 10.4425 22.186 10.2545 22.0297C10.0722 21.8676 9.81301 21.7113 9.47692 21.5608C9.14652 21.4045 8.71929 21.2424 8.19521 21.0745C7.61417 20.8892 7.073 20.6808 6.57171 20.4492C6.07042 20.2176 5.62894 19.9484 5.24728 19.6416C4.87131 19.3348 4.57794 18.9816 4.36717 18.5822C4.1564 18.1769 4.05102 17.708 4.05102 17.1753C4.05102 16.6543 4.15925 16.1796 4.37572 15.7512C4.59788 15.3227 4.91119 14.9551 5.31564 14.6483C5.72009 14.3357 6.19574 14.0954 6.74261 13.9275C7.29516 13.7596 7.90469 13.6757 8.57118 13.6757C9.49401 13.6757 10.2915 13.8465 10.9637 14.188C11.6416 14.5296 12.1657 14.9928 12.5359 15.5775C12.9062 16.1622 13.0913 16.8193 13.0913 17.5488H10.7501C10.7501 17.1551 10.6675 16.8077 10.5023 16.5067C10.3428 16.2056 10.0978 15.9683 9.76744 15.7946C9.44274 15.6209 9.03259 15.5341 8.537 15.5341C8.05849 15.5341 7.65974 15.6064 7.34074 15.7512C7.02743 15.8959 6.79103 16.0927 6.63152 16.3417C6.47772 16.5906 6.40082 16.8685 6.40082 17.1753C6.40082 17.4069 6.45493 17.6153 6.56317 17.8006C6.6714 17.9801 6.83375 18.1508 7.05022 18.313C7.26668 18.4693 7.53442 18.6169 7.85342 18.7558C8.17812 18.889 8.55409 19.0221 8.98132 19.1553C9.6649 19.3637 10.263 19.5953 10.7757 19.85C11.2941 20.1048 11.7242 20.3942 12.066 20.7184C12.4135 21.0426 12.6726 21.4074 12.8435 21.8126C13.0201 22.2179 13.1084 22.6781 13.1084 23.1934C13.1084 23.7376 13.003 24.2239 12.7923 24.6523C12.5815 25.0807 12.2796 25.4454 11.8865 25.7465C11.4935 26.0475 11.0207 26.2762 10.4681 26.4325C9.92124 26.5888 9.30887 26.667 8.63099 26.667C8.02716 26.667 7.42903 26.5859 6.8366 26.4238C6.24986 26.2559 5.71724 26.007 5.23873 25.677C4.76023 25.3412 4.37856 24.9186 4.09374 24.4091C3.80892 23.8939 3.6665 23.2918 3.6665 22.6029H6.02485C6.02485 23.0023 6.08751 23.3439 6.21283 23.6276C6.34385 23.9055 6.52614 24.1341 6.75969 24.3136C6.99895 24.4873 7.27807 24.6147 7.59708 24.6957C7.91608 24.7768 8.26072 24.8173 8.63099 24.8173C9.10949 24.8173 9.50255 24.7507 9.81016 24.6176C10.1235 24.4786 10.357 24.2876 10.5108 24.0444C10.6703 23.8013 10.7501 23.5234 10.7501 23.2107Z" fill="url(#paint2_linear_128_4408)"/>
<path fill-rule="evenodd" clip-rule="evenodd" d="M22.2513 19.7806C22.1446 19.8405 22.0316 19.8948 21.9123 19.9435C22.1935 20.0157 22.4432 20.1206 22.6614 20.2582C23.1171 20.5419 23.4532 20.9066 23.6697 21.3524C23.8862 21.7981 23.9944 22.2787 23.9944 22.7939C23.9944 23.6044 23.8207 24.2847 23.4732 24.8347C23.1314 25.3846 22.6301 25.7986 21.9693 26.0765C21.3142 26.3544 20.5196 26.4933 19.5853 26.4933H14.9199V13.8494H19.2008C19.9072 13.8494 20.5366 13.9188 21.0892 14.0578C21.6475 14.1909 22.1203 14.3993 22.5076 14.683C22.895 14.9667 23.1884 15.3227 23.3877 15.7512C23.5928 16.1796 23.6953 16.689 23.6953 17.2796C23.6953 17.8006 23.5757 18.2811 23.3365 18.7211C23.1029 19.1553 22.7412 19.5085 22.2513 19.7806ZM20.7389 24.3831C20.437 24.5394 20.0524 24.6176 19.5853 24.6176H17.2697V20.8574H19.6879C20.155 20.8574 20.5309 20.9355 20.8158 21.0918C21.1063 21.2482 21.3171 21.471 21.4481 21.7605C21.5848 22.05 21.6532 22.3916 21.6532 22.7852C21.6532 23.1442 21.5763 23.4626 21.4224 23.7405C21.2743 24.0126 21.0465 24.2268 20.7389 24.3831ZM20.3885 18.9729C20.0752 19.1061 19.685 19.1727 19.2179 19.1727H17.2697V15.7338H19.2008C19.6907 15.7338 20.0952 15.7946 20.4142 15.9162C20.7332 16.0319 20.9667 16.2172 21.1148 16.4719C21.2686 16.7267 21.3455 17.0567 21.3455 17.4619C21.3455 17.8266 21.2629 18.1364 21.0977 18.3911C20.9382 18.6458 20.7018 18.8398 20.3885 18.9729Z" fill="url(#paint3_linear_128_4408)"/>
<defs>
<linearGradient id="paint0_linear_128_4408" x1="37.6667" y1="1.66667" x2="2.66667" y2="40" gradientUnits="userSpaceOnUse">
<stop stop-color="#17191E"/>
<stop offset="1" stop-color="#151E3B"/>
</linearGradient>
<linearGradient id="paint1_linear_128_4408" x1="19.6665" y1="10.9448" x2="19.6665" y2="31.8149" gradientUnits="userSpaceOnUse">
<stop offset="0.484587" stop-color="white"/>
<stop offset="0.746746" stop-color="#151E3B" stop-opacity="0"/>
</linearGradient>
<linearGradient id="paint2_linear_128_4408" x1="19.6665" y1="10.9448" x2="19.6665" y2="31.8149" gradientUnits="userSpaceOnUse">
<stop offset="0.484587" stop-color="white"/>
<stop offset="0.746746" stop-color="#151E3B" stop-opacity="0"/>
</linearGradient>
<linearGradient id="paint3_linear_128_4408" x1="19.6665" y1="10.9448" x2="19.6665" y2="31.8149" gradientUnits="userSpaceOnUse">
<stop offset="0.484587" stop-color="white"/>
<stop offset="0.746746" stop-color="#151E3B" stop-opacity="0"/>
</linearGradient>
</defs>
</svg>
